<svg width="55" height="55" viewBox="0 0 55 55" fill="none" xmlns="http://www.w3.org/2000/svg">
<path d="M29.3336 0C30.8289 0.25709 32.3399 0.441628 33.8162 0.788621C45.8032 3.54406 54.5947 14.3182 54.9039 26.6049C55.2588 40.6708 45.5572 52.5127 31.6632 54.6704C24.6089 55.7941 17.3948 54.1129 11.564 49.9863C5.73323 45.8598 1.74856 39.6155 0.46223 32.589C-1.92887 19.3181 5.1419 6.70485 17.61 1.85168C19.9847 0.924806 22.4821 0.349884 25.023 0.145113C25.1996 0.115485 25.3732 0.0706131 25.5419 0.0110322L29.3336 0ZM12.9855 36.581C13.9634 37.8917 15.2662 38.2939 16.7488 38.2939H30.4708C33.0733 38.2939 35.6757 38.2939 38.2782 38.2939C39.7261 38.2939 40.9816 37.8507 41.8869 36.6393C41.8287 36.5519 41.7638 36.4692 41.6929 36.3917C38.1757 33.3066 34.6531 30.2294 31.1254 27.1601C30.9677 27.026 30.5402 27.0418 30.3368 27.1601C29.4992 27.6522 28.6838 28.1869 27.8968 28.7547C27.5056 29.037 27.2264 29.007 26.8542 28.7389C26.0892 28.1837 25.277 27.6869 24.5104 27.1412C24.1824 26.9093 23.9426 26.8809 23.6303 27.1869C23.0862 27.72 22.4931 28.2027 21.9206 28.7058L12.9855 36.581ZM40.9027 17.5862L40.8885 17.2708C40.1109 17.091 39.3333 16.7613 38.5542 16.7566C31.1412 16.7172 23.7281 16.7267 16.3277 16.7408C15.45 16.718 14.5921 17.0038 13.9035 17.5484C13.9983 17.6372 14.0978 17.721 14.2016 17.7992C18.4391 20.6256 22.6751 23.4546 26.9094 26.2863C27.3242 26.5655 27.5924 26.4835 27.9567 26.239C31.6885 23.7396 35.4249 21.2486 39.1662 18.766C39.7529 18.378 40.3333 17.979 40.9074 17.5862H40.9027ZM32.5954 25.6302L42.5935 34.3823C42.6393 34.2726 42.6737 34.1584 42.696 34.0416C42.696 29.5764 42.7086 25.1097 42.696 20.635C42.696 20.1619 42.5257 19.6887 42.409 19.0878L32.5954 25.6302ZM22.2171 25.6302L12.5865 19.2124L12.312 19.2928C12.096 24.2548 12.271 29.2216 12.2064 34.3902L22.2171 25.6302Z" fill="black"/>
</svg>
