<svg width="55" height="55" viewBox="0 0 55 55" fill="none" xmlns="http://www.w3.org/2000/svg">
<path d="M29.4171 0C30.8838 0.253921 32.368 0.440028 33.8174 0.771229C44.3464 3.1685 52.628 11.8681 54.5175 22.476C56.7823 35.1799 50.3822 47.335 38.6292 52.6548C28.7058 57.1465 16.5491 55.0583 8.66337 47.5069C-2.58645 36.7318 -2.93975 19.3674 7.9426 8.2138C12.611 3.4303 18.3597 0.769649 25.0295 0.137211C25.2326 0.10519 25.4334 0.0593468 25.6304 0H29.4171ZM20.88 13.3332L18.8092 15.0807C17.1642 16.4686 16.3283 18.1577 16.4955 20.391C16.7927 24.4084 18.0141 28.3027 20.0646 31.7701C22.2554 35.5672 25.4112 38.7176 29.2121 40.9018C30.7971 41.8308 32.4011 42.2014 34.1596 41.4586C34.9087 41.1431 35.6815 40.8829 36.4354 40.577C36.7235 40.4356 37.0032 40.2777 37.2729 40.1038L30.8555 34.4702C30.764 34.844 30.7545 35.0617 30.6615 35.2351C30.4754 35.579 30.2435 35.8975 30.0306 36.2272C29.7057 35.9969 29.2688 35.8376 29.0717 35.5269C26.9341 32.156 24.8218 28.7699 22.7347 25.3685C22.1717 24.4537 21.6638 23.5011 21.1891 22.5296C21.0645 22.2757 21.0314 21.7915 21.1891 21.6306C21.3468 21.4698 21.7916 21.4855 22.107 21.495C22.3751 21.495 22.6385 21.6086 23.0533 21.7079C22.3105 18.8753 21.6181 16.1926 20.88 13.3332ZM21.4604 13.1361C22.2206 16.0333 22.9523 18.8233 23.7125 21.7284C24.1857 21.3846 24.5327 21.0976 24.9064 20.8768C25.3717 20.5929 25.5058 20.2806 25.3433 19.7144C24.9033 18.183 24.5547 16.6248 24.1541 15.0791C23.7125 13.3443 23.7094 13.3443 21.9382 13.1361C21.8389 13.1251 21.7364 13.1361 21.4604 13.1361ZM31.081 33.8567L37.7681 39.6023C38.0164 39.0435 38.2359 38.4723 38.4258 37.8911C38.44 37.7718 38.4271 37.6508 38.3881 37.5372C38.349 37.4236 38.2848 37.3203 38.2002 37.235C36.6736 35.8681 35.1295 34.5254 33.5681 33.2069C33.4503 33.1199 33.315 33.0592 33.1716 33.0293C33.0281 32.9994 32.8799 33.0008 32.737 33.0334C32.215 33.2053 31.7497 33.5097 31.0731 33.8567H31.081Z" fill="black"/>
</svg>
