<svg width="54" height="55" viewBox="0 0 54 55" fill="none" xmlns="http://www.w3.org/2000/svg">
<g clip-path="url(#clip0_270_514)">
<path d="M25.2362 0.000226971C23.7134 0.260397 22.1736 0.449612 20.6694 0.788622C10.4441 3.127 2.1649 12.05 0.406406 22.583C-1.99873 36.9933 6.47585 50.4543 20.2554 54.1188C35.5158 58.1696 51.0926 47.8716 53.6342 32.0437C55.9943 17.3481 46.7056 3.5827 32.3896 0.574181C31.2064 0.326625 30.0031 0.187862 28.809 -0.00292969L25.2362 0.000226971ZM36.1035 27.5152C36.1035 31.7463 36.1035 35.9773 36.1035 40.2084C36.1035 41.8766 35.5452 42.4553 33.9325 42.4553C29.2804 42.4553 24.6283 42.4553 19.9762 42.4553C18.4829 42.4553 17.8673 41.834 17.8673 40.2919C17.8673 31.7773 17.8673 23.2626 17.8673 14.7479C17.8673 13.1286 18.4876 12.5152 20.0848 12.5152H33.886C35.4801 12.5152 36.1004 13.1459 36.102 14.7432C36.1061 19.0016 36.1066 23.2589 36.1035 27.5152Z" fill="black"/>
<path d="M34.7947 15.8311H19.2194V40.3344H34.7947V15.8311Z" fill="black"/>
<path d="M27.0101 14.6847C28.1467 14.6847 29.285 14.7036 30.4216 14.669C30.6511 14.6611 30.876 14.4466 31.1008 14.3284C30.8791 14.1707 30.6573 13.8995 30.4325 13.8963C28.1333 13.8627 25.8331 13.8627 23.5319 13.8963C23.3179 13.8963 23.107 14.147 22.8945 14.2826C23.1039 14.4167 23.3101 14.6626 23.5148 14.669C24.6825 14.7052 25.8471 14.6847 27.0101 14.6847Z" fill="black"/>
</g>
<defs>
<clipPath id="clip0_270_514">
<rect width="54" height="55" fill="white" transform="matrix(-1 0 0 1 54 0)"/>
</clipPath>
</defs>
</svg>
